<svg t="1769695218557" class="icon" viewBox="0 0 1024 1024" version="1.1" xmlns="http://www.w3.org/2000/svg" p-id="1899" width="200" height="200"><path d="M783.83104 704.3328a60.05248 60.05248 0 0 0 8.12544 11.34592c18.19136-59.71456 23.18336-164.97152 11.45856-256.75776-21.47328-168.09472-121.91232-436.608-265.99936-403.85536C469.4528 70.5024 426.43968 298.60352 450.29376 462.70976c161.99168 48.8448 289.69984 161.19808 333.53728 241.62304zM933.51936 516.4544c-28.06272 117.61152-123.38688 199.22432-123.38688 199.22432s30.08512-86.13376 40.6016-210.41664c10.19904-120.48896 23.6032-154.96704 47.77984-154.33728 24.18688 0.62464 67.21536 30.60736 35.00544 165.5296z" fill="#9918e2" p-id="1900"></path><path d="M315.8784 765.56288c86.37952 17.78176 108.43136 22.8608 216.75008 3.1232 39.99232-7.296 84.84864-34.10432 225.01888-51.53792-46.4384-79.66208-215.31136-221.85984-394.69056-246.81472-175.60576-24.42752-321.77152-2.74944-289.73568 106.98752 31.53408 108.04736 130.63168 165.15072 242.65728 188.24192z" fill="#9918e2" p-id="1901"></path><path d="M90.9056 729.45152s108.42624 89.09312 227.70688 99.90144c148.77696 13.47584 146.47808-3.64544 324.11136-56.3712 138.10176-40.99072 181.99552-40.52992 231.5776 17.31072 39.89504 46.55104 22.33856 160.77824-7.6288 170.03008 0 0-8.56576-137.0624-125.85472-125.91616-83.08736 7.90016-129.49504 61.75232-226.2272 101.56544-39.66464 16.32256-180.18816 68.06016-294.27712 10.69056-89.46688-44.98944-109.4912-100.89984-121.66144-144.52224-12.83584-45.95712-6.86592-75.37664-7.74656-72.68864zM889.58976 736c-47.55968-21.888-79.44704-3.95264-79.44704-3.95264s23.58784 0.34816 53.49888 13.38368c28.70272 12.51328 33.11616 39.31136 43.68896 38.88128 11.6224-0.47104 19.36896-31.21664-17.7408-48.31232z" fill="#9918e2" p-id="1902"></path></svg>